<svg width="26" height="26" viewBox="0 0 26 26" fill="none" xmlns="http://www.w3.org/2000/svg">
<path d="M25.504 22.0315C25.504 23.9497 23.9497 25.504 22.0315 25.504H3.97445C2.05694 25.504 0.501953 23.9497 0.501953 22.0315V3.97445C0.501953 2.05624 2.05694 0.501953 3.97445 0.501953H22.0315C23.9497 0.501953 25.504 2.05624 25.504 3.97445V22.0315Z" fill="#0099FF"/>
<path d="M18.7252 15.099H15.918V25.498H11.7505V15.099H9.25V11.8994H11.7505V9.97155C11.7522 7.16543 12.9666 5.5 16.4114 5.5H19.252V8.69968H17.3458C16.0047 8.69968 15.918 9.17963 15.918 10.0779V11.8994H19.252L18.7252 15.099Z" fill="white"/>
</svg>
