<svg width="30" height="30" viewBox="0 0 30 30" fill="none" xmlns="http://www.w3.org/2000/svg">
<path d="M27.2339 14.0514H26.2271V13.9995H14.9771V18.9995H22.0414C21.0108 21.9101 18.2414 23.9995 14.9771 23.9995C10.8352 23.9995 7.47705 20.6414 7.47705 16.4995C7.47705 12.3576 10.8352 8.99951 14.9771 8.99951C16.8889 8.99951 18.6283 9.72076 19.9527 10.8989L23.4883 7.36326C21.2558 5.28264 18.2696 3.99951 14.9771 3.99951C8.07393 3.99951 2.47705 9.59639 2.47705 16.4995C2.47705 23.4026 8.07393 28.9995 14.9771 28.9995C21.8802 28.9995 27.4771 23.4026 27.4771 16.4995C27.4771 15.6614 27.3908 14.8433 27.2339 14.0514Z" fill="#FFC107"/>
<path d="M3.91699 10.6814L8.02387 13.6933C9.13512 10.942 11.8264 8.99951 14.9757 8.99951C16.8876 8.99951 18.627 9.72076 19.9514 10.8989L23.487 7.36326C21.2545 5.28264 18.2682 3.99951 14.9757 3.99951C10.1745 3.99951 6.01074 6.71014 3.91699 10.6814Z" fill="#FF3D00"/>
<path d="M14.9768 29.0002C18.2055 29.0002 21.1393 27.7646 23.3574 25.7552L19.4886 22.4814C18.2336 23.4321 16.6736 24.0002 14.9768 24.0002C11.7255 24.0002 8.96488 21.9271 7.92488 19.0339L3.84863 22.1746C5.91738 26.2227 10.1186 29.0002 14.9768 29.0002Z" fill="#4CAF50"/>
<path d="M27.2339 14.0519H26.2271V14H14.9771V19H22.0414C21.5464 20.3981 20.6471 21.6037 19.4871 22.4819L19.4889 22.4806L23.3577 25.7544C23.0839 26.0031 27.4771 22.75 27.4771 16.5C27.4771 15.6619 27.3908 14.8438 27.2339 14.0519Z" fill="#1976D2"/>
</svg>
