<svg width="320" height="180" viewBox="0 0 320 180" fill="none" xmlns="http://www.w3.org/2000/svg">
<g clip-path="url(#clip0_556_963)">
<path d="M320 180H0V15C0 6.71573 6.71573 0 15 0H305C313.284 0 320 6.71573 320 15V180Z" fill="#101E2C"/>
<circle cx="217" cy="145" r="181" transform="rotate(180 217 145)" fill="#162534"/>
<circle cx="252" cy="165" r="139" transform="rotate(180 252 165)" fill="#1F2E3C"/>
<path d="M187.779 129.937C187.779 129.359 187.986 128.875 188.401 128.484C188.816 128.094 189.317 127.898 189.903 127.898C190.489 127.898 190.989 128.094 191.404 128.484C191.819 128.875 192.027 129.359 192.027 129.937C192.027 130.523 191.819 131.011 191.404 131.402C190.989 131.792 190.489 131.988 189.903 131.988C189.309 131.988 188.804 131.792 188.389 131.402C187.982 131.011 187.779 130.523 187.779 129.937ZM188.218 114.898H191.636L191.392 126.153H188.475L188.218 114.898ZM201.756 127.3C201.756 127.024 201.634 126.718 201.39 126.385C201.154 126.051 200.861 125.722 200.511 125.396C200.161 125.062 199.819 124.769 199.485 124.517C199.16 124.81 198.847 125.127 198.545 125.469C198.244 125.803 197.996 126.137 197.801 126.47C197.605 126.804 197.508 127.121 197.508 127.422C197.508 127.821 197.691 128.139 198.057 128.375C198.423 128.602 198.944 128.716 199.62 128.716C200.328 128.716 200.861 128.602 201.219 128.375C201.577 128.147 201.756 127.789 201.756 127.3ZM197.239 122.564L196.763 122.137L198.667 119.695C199.408 120.289 200.132 120.879 200.84 121.465C201.556 122.051 202.203 122.653 202.781 123.272C203.359 123.882 203.819 124.521 204.161 125.188C204.502 125.856 204.673 126.564 204.673 127.312C204.673 128.273 204.458 129.099 204.026 129.791C203.595 130.482 203.001 131.015 202.244 131.39C201.487 131.764 200.617 131.951 199.632 131.951C198.004 131.951 196.755 131.552 195.884 130.755C195.022 129.949 194.59 128.94 194.59 127.728C194.59 126.718 194.839 125.819 195.335 125.03C195.831 124.232 196.466 123.41 197.239 122.564ZM204.246 138.641L203.099 135.638C204.303 135.369 205.324 135.011 206.163 134.563C207.009 134.124 207.652 133.542 208.091 132.818C208.531 132.094 208.75 131.19 208.75 130.108C208.75 129.375 208.641 128.562 208.421 127.667C208.209 126.771 207.969 125.929 207.701 125.14L210.74 124.139C211.058 125.018 211.298 125.949 211.46 126.934C211.623 127.919 211.705 128.863 211.705 129.766C211.705 131.41 211.403 132.838 210.801 134.051C210.199 135.271 209.34 136.264 208.226 137.029C207.111 137.794 205.784 138.331 204.246 138.641ZM214.402 114.825H217.491V126.202C217.491 127.121 217.629 127.772 217.906 128.155C218.182 128.529 218.724 128.716 219.529 128.716H219.822V132H219.529C217.763 132 216.465 131.54 215.635 130.621C214.813 129.701 214.402 128.305 214.402 126.434V114.825ZM219.346 128.716H219.932V132H219.346V128.716ZM221.861 133.526L223.973 135.638L221.861 137.75L219.749 135.638L221.861 133.526ZM220.97 132H219.615V128.716H220.945C221.735 128.716 222.312 128.574 222.679 128.289C223.053 127.996 223.24 127.463 223.24 126.69C223.24 126.242 223.191 125.66 223.094 124.944C223.004 124.228 222.846 123.431 222.618 122.552L225.572 121.758C225.775 122.556 225.926 123.341 226.023 124.114C226.129 124.879 226.182 125.612 226.182 126.312C226.182 127.451 226.019 128.448 225.694 129.302C225.368 130.149 224.827 130.812 224.07 131.292C223.313 131.764 222.28 132 220.97 132ZM237.791 129.412C237.791 131.251 237.449 132.789 236.766 134.026C236.09 135.271 235.118 136.264 233.848 137.005C232.587 137.754 231.081 138.295 229.332 138.628L228.221 135.625C229.36 135.406 230.369 135.117 231.248 134.759C232.135 134.409 232.859 133.986 233.421 133.489C233.991 133.001 234.369 132.452 234.556 131.841C234.328 131.89 234.084 131.935 233.824 131.976C233.571 132.008 233.344 132.024 233.14 132.024C231.618 132.024 230.422 131.691 229.551 131.023C228.689 130.348 228.257 129.257 228.257 127.752C228.257 127.101 228.355 126.438 228.55 125.762C228.746 125.079 229.03 124.452 229.405 123.882C229.779 123.305 230.251 122.841 230.821 122.491C231.39 122.133 232.05 121.954 232.798 121.954C233.685 121.954 234.442 122.165 235.069 122.588C235.704 123.012 236.22 123.585 236.619 124.31C237.018 125.026 237.311 125.827 237.498 126.714C237.693 127.593 237.791 128.493 237.791 129.412ZM233.116 128.765C233.458 128.765 233.779 128.745 234.08 128.704C234.389 128.655 234.654 128.602 234.874 128.545C234.841 128.171 234.776 127.785 234.678 127.386C234.581 126.987 234.45 126.621 234.288 126.287C234.125 125.945 233.921 125.673 233.677 125.469C233.433 125.258 233.132 125.152 232.774 125.152C232.359 125.152 232.029 125.302 231.785 125.604C231.549 125.896 231.382 126.238 231.285 126.629C231.195 127.011 231.15 127.345 231.15 127.63C231.15 128.094 231.329 128.399 231.688 128.545C232.054 128.692 232.53 128.765 233.116 128.765ZM243.064 128.765C243.813 128.765 244.513 128.708 245.164 128.594C245.815 128.48 246.34 128.285 246.739 128.008C247.138 127.723 247.337 127.329 247.337 126.824C247.337 126.312 247.105 125.77 246.641 125.201C246.177 124.631 245.547 124.061 244.749 123.492C243.951 122.914 243.052 122.381 242.051 121.893L243.455 118.963C244.358 119.41 245.217 119.899 246.031 120.428C246.845 120.957 247.569 121.539 248.204 122.173C248.838 122.808 249.339 123.504 249.705 124.261C250.071 125.009 250.254 125.827 250.254 126.714C250.254 127.959 249.97 128.969 249.4 129.742C248.838 130.515 248.033 131.08 246.983 131.438C245.941 131.797 244.696 131.976 243.248 131.976C242.621 131.976 242.031 131.955 241.478 131.915C240.932 131.866 240.399 131.784 239.878 131.67V128.399C240.407 128.505 240.961 128.594 241.539 128.667C242.125 128.733 242.633 128.765 243.064 128.765ZM261.839 128.765C262.588 128.765 263.287 128.708 263.938 128.594C264.59 128.48 265.114 128.285 265.513 128.008C265.912 127.723 266.111 127.329 266.111 126.824C266.111 126.312 265.879 125.77 265.416 125.201C264.952 124.631 264.321 124.061 263.523 123.492C262.726 122.914 261.827 122.381 260.826 121.893L262.229 118.963C263.133 119.41 263.991 119.899 264.805 120.428C265.619 120.957 266.343 121.539 266.978 122.173C267.613 122.808 268.113 123.504 268.479 124.261C268.846 125.009 269.029 125.827 269.029 126.714C269.029 127.959 268.744 128.969 268.174 129.742C267.613 130.515 266.807 131.08 265.757 131.438C264.716 131.797 263.471 131.976 262.022 131.976C261.395 131.976 260.805 131.955 260.252 131.915C259.707 131.866 259.174 131.784 258.653 131.67V128.399C259.182 128.505 259.735 128.594 260.313 128.667C260.899 128.733 261.408 128.765 261.839 128.765ZM280.662 129.412C280.662 131.251 280.32 132.789 279.637 134.026C278.961 135.271 277.989 136.264 276.719 137.005C275.458 137.754 273.952 138.295 272.203 138.628L271.092 135.625C272.231 135.406 273.24 135.117 274.119 134.759C275.006 134.409 275.73 133.986 276.292 133.489C276.862 133.001 277.24 132.452 277.427 131.841C277.199 131.89 276.955 131.935 276.695 131.976C276.443 132.008 276.215 132.024 276.011 132.024C274.489 132.024 273.293 131.691 272.422 131.023C271.56 130.348 271.128 129.257 271.128 127.752C271.128 127.101 271.226 126.438 271.421 125.762C271.617 125.079 271.902 124.452 272.276 123.882C272.65 123.305 273.122 122.841 273.692 122.491C274.262 122.133 274.921 121.954 275.669 121.954C276.556 121.954 277.313 122.165 277.94 122.588C278.575 123.012 279.091 123.585 279.49 124.31C279.889 125.026 280.182 125.827 280.369 126.714C280.564 127.593 280.662 128.493 280.662 129.412ZM275.987 128.765C276.329 128.765 276.65 128.745 276.951 128.704C277.26 128.655 277.525 128.602 277.745 128.545C277.712 128.171 277.647 127.785 277.549 127.386C277.452 126.987 277.321 126.621 277.159 126.287C276.996 125.945 276.792 125.673 276.548 125.469C276.304 125.258 276.003 125.152 275.645 125.152C275.23 125.152 274.9 125.302 274.656 125.604C274.42 125.896 274.253 126.238 274.156 126.629C274.066 127.011 274.021 127.345 274.021 127.63C274.021 128.094 274.201 128.399 274.559 128.545C274.925 128.692 275.401 128.765 275.987 128.765ZM281.907 138.641L280.76 135.638C281.964 135.369 282.986 135.011 283.824 134.563C284.67 134.124 285.313 133.542 285.752 132.818C286.192 132.094 286.412 131.19 286.412 130.108C286.412 129.375 286.302 128.562 286.082 127.667C285.87 126.771 285.63 125.929 285.362 125.14L288.401 124.139C288.719 125.018 288.959 125.949 289.122 126.934C289.284 127.919 289.366 128.863 289.366 129.766C289.366 131.41 289.065 132.838 288.462 134.051C287.86 135.271 287.002 136.264 285.887 137.029C284.772 137.794 283.445 138.331 281.907 138.641ZM300.95 129.412C300.95 131.251 300.608 132.789 299.925 134.026C299.249 135.271 298.277 136.264 297.007 137.005C295.746 137.754 294.24 138.295 292.491 138.628L291.38 135.625C292.519 135.406 293.528 135.117 294.407 134.759C295.294 134.409 296.019 133.986 296.58 133.489C297.15 133.001 297.528 132.452 297.715 131.841C297.487 131.89 297.243 131.935 296.983 131.976C296.731 132.008 296.503 132.024 296.299 132.024C294.778 132.024 293.581 131.691 292.71 131.023C291.848 130.348 291.417 129.257 291.417 127.752C291.417 127.101 291.514 126.438 291.709 125.762C291.905 125.079 292.19 124.452 292.564 123.882C292.938 123.305 293.41 122.841 293.98 122.491C294.55 122.133 295.209 121.954 295.958 121.954C296.845 121.954 297.601 122.165 298.228 122.588C298.863 123.012 299.38 123.585 299.778 124.31C300.177 125.026 300.47 125.827 300.657 126.714C300.853 127.593 300.95 128.493 300.95 129.412ZM296.275 128.765C296.617 128.765 296.938 128.745 297.239 128.704C297.549 128.655 297.813 128.602 298.033 128.545C298 128.171 297.935 127.785 297.837 127.386C297.74 126.987 297.61 126.621 297.447 126.287C297.284 125.945 297.081 125.673 296.836 125.469C296.592 125.258 296.291 125.152 295.933 125.152C295.518 125.152 295.188 125.302 294.944 125.604C294.708 125.896 294.542 126.238 294.444 126.629C294.354 127.011 294.31 127.345 294.31 127.63C294.31 128.094 294.489 128.399 294.847 128.545C295.213 128.692 295.689 128.765 296.275 128.765Z" fill="white"/>
</g>
<defs>
<clipPath id="clip0_556_963">
<path d="M320 180H0V15C0 6.71573 6.71573 0 15 0H305C313.284 0 320 6.71573 320 15V180Z" fill="white"/>
</clipPath>
</defs>
</svg>
