<svg width="320" height="180" viewBox="0 0 320 180" fill="none" xmlns="http://www.w3.org/2000/svg">
<g clip-path="url(#clip0_556_1007)">
<path d="M320 180H0V15C0 6.71573 6.71573 0 15 0H305C313.284 0 320 6.71573 320 15V180Z" fill="#101E2C"/>
<circle cx="217" cy="145" r="181" transform="rotate(180 217 145)" fill="#162534"/>
<circle cx="252" cy="165" r="139" transform="rotate(180 252 165)" fill="#1F2E3C"/>
<path d="M184.288 129.937C184.288 129.359 184.495 128.875 184.91 128.484C185.325 128.094 185.826 127.898 186.412 127.898C186.998 127.898 187.498 128.094 187.913 128.484C188.328 128.875 188.536 129.359 188.536 129.937C188.536 130.523 188.328 131.011 187.913 131.402C187.498 131.792 186.998 131.988 186.412 131.988C185.818 131.988 185.313 131.792 184.898 131.402C184.491 131.011 184.288 130.523 184.288 129.937ZM184.727 114.898H188.145L187.901 126.153H184.983L184.727 114.898ZM198.57 121.636L200.682 123.748L198.57 125.86L196.458 123.748L198.57 121.636ZM198.716 135.04C199.921 135.04 200.869 134.844 201.561 134.454C202.252 134.063 202.741 133.538 203.025 132.879C203.318 132.22 203.465 131.483 203.465 130.669C203.465 129.774 203.326 128.863 203.05 127.935C202.773 126.999 202.472 126.128 202.146 125.323L205.174 124.175L206.15 127.129C206.297 127.569 206.517 127.943 206.81 128.252C207.111 128.562 207.542 128.716 208.104 128.716H208.567V132H208.152C207.77 132 207.44 131.967 207.164 131.902C206.895 131.829 206.643 131.707 206.407 131.536C206.268 132.903 205.886 134.091 205.259 135.101C204.641 136.11 203.786 136.891 202.696 137.444C201.605 137.998 200.279 138.274 198.716 138.274C196.958 138.274 195.518 137.941 194.395 137.273C193.28 136.614 192.454 135.715 191.917 134.576C191.388 133.444 191.124 132.167 191.124 130.743C191.124 129.791 191.225 128.81 191.429 127.801C191.64 126.784 191.937 125.778 192.32 124.786L195.091 125.86C194.806 126.698 194.566 127.528 194.371 128.35C194.175 129.164 194.078 129.929 194.078 130.645C194.078 131.443 194.216 132.175 194.493 132.842C194.778 133.51 195.258 134.043 195.933 134.441C196.609 134.84 197.536 135.04 198.716 135.04ZM212.242 120.611C212.876 121.01 213.483 121.4 214.061 121.783C214.638 122.165 215.167 122.56 215.647 122.967C216.128 123.366 216.547 123.785 216.905 124.224C217.263 124.664 217.54 125.132 217.735 125.628C217.93 126.124 218.028 126.657 218.028 127.227C218.028 128.456 217.747 129.42 217.186 130.12C216.624 130.812 215.822 131.3 214.781 131.585C213.747 131.862 212.514 132 211.082 132H208.128V128.716H211.07C211.973 128.716 212.718 128.676 213.304 128.594C213.898 128.505 214.341 128.35 214.634 128.13C214.927 127.911 215.074 127.593 215.074 127.178C215.074 126.926 214.944 126.649 214.683 126.348C214.423 126.047 214.081 125.734 213.658 125.408C213.235 125.083 212.771 124.757 212.266 124.432C211.77 124.106 211.273 123.785 210.777 123.467C210.289 123.15 209.849 122.849 209.458 122.564C209.141 122.32 208.893 122.015 208.714 121.648C208.543 121.282 208.458 120.904 208.458 120.513C208.458 120.074 208.563 119.655 208.775 119.256C208.995 118.857 209.316 118.576 209.739 118.414L219.041 114.617V117.852L212.242 120.611ZM237.425 127.532C237.425 127.158 237.339 126.808 237.168 126.482C237.006 126.157 236.778 125.896 236.485 125.701C236.192 125.506 235.846 125.408 235.447 125.408C235.162 125.408 234.902 125.486 234.666 125.64C234.43 125.787 234.218 125.986 234.031 126.238C233.852 126.482 233.694 126.755 233.555 127.056C233.417 127.349 233.299 127.642 233.201 127.935C233.608 128.114 233.999 128.285 234.373 128.448C234.756 128.602 235.105 128.729 235.423 128.826C235.74 128.924 236.009 128.973 236.229 128.973C236.66 128.973 236.965 128.83 237.144 128.545C237.331 128.252 237.425 127.915 237.425 127.532ZM230.32 127.435C230.532 126.727 230.792 126.063 231.102 125.445C231.419 124.826 231.789 124.277 232.212 123.797C232.636 123.317 233.112 122.942 233.641 122.674C234.178 122.397 234.764 122.259 235.398 122.259C236.383 122.259 237.242 122.479 237.974 122.918C238.707 123.357 239.28 123.976 239.695 124.773C240.11 125.563 240.318 126.486 240.318 127.544C240.318 128.391 240.163 129.168 239.854 129.876C239.545 130.576 239.081 131.137 238.462 131.561C237.852 131.984 237.091 132.195 236.18 132.195C235.732 132.195 235.26 132.118 234.764 131.963C234.267 131.809 233.779 131.634 233.299 131.438C232.827 131.235 232.396 131.056 232.005 130.901C231.614 130.747 231.297 130.669 231.053 130.669C230.841 130.669 230.666 130.771 230.528 130.975C230.398 131.17 230.292 131.459 230.21 131.841C230.137 132.216 230.084 132.667 230.052 133.196C230.027 133.725 230.015 134.315 230.015 134.966C230.015 135.634 230.027 136.277 230.052 136.895C230.076 137.522 230.105 138.083 230.137 138.58C230.178 139.076 230.206 139.475 230.223 139.776H227.122C227.073 138.921 227.033 138.095 227 137.298C226.967 136.508 226.951 135.739 226.951 134.991C226.951 133.949 226.988 132.997 227.061 132.134C227.134 131.272 227.281 130.515 227.5 129.864C227.728 129.205 228.066 128.667 228.514 128.252C228.969 127.837 229.572 127.565 230.32 127.435ZM243.064 114.825H246.153V126.202C246.153 127.121 246.291 127.772 246.568 128.155C246.845 128.529 247.386 128.716 248.191 128.716H248.484V132H248.191C246.425 132 245.127 131.54 244.297 130.621C243.475 129.701 243.064 128.305 243.064 126.434V114.825ZM249.388 132H248.033V128.716H249.363C250.153 128.716 250.73 128.574 251.097 128.289C251.471 127.996 251.658 127.463 251.658 126.69C251.658 126.242 251.609 125.66 251.512 124.944C251.422 124.228 251.264 123.431 251.036 122.552L253.99 121.758C254.193 122.556 254.344 123.341 254.441 124.114C254.547 124.879 254.6 125.612 254.6 126.312C254.6 127.451 254.437 128.448 254.112 129.302C253.786 130.149 253.245 130.812 252.488 131.292C251.731 131.764 250.698 132 249.388 132ZM251.414 116.155L253.526 118.267L251.414 120.379L249.302 118.267L251.414 116.155ZM275.45 118.89L277.464 120.892L275.45 122.918L273.436 120.892L275.45 118.89ZM271.324 118.89L273.362 120.892L271.324 122.918L269.334 120.892L271.324 118.89ZM280.223 123.528L283.091 123.174L283.348 126.556C283.388 127.207 283.563 127.732 283.873 128.13C284.182 128.521 284.682 128.716 285.374 128.716H285.643V132H285.374C284.446 132 283.673 131.829 283.055 131.487C282.444 131.146 281.94 130.657 281.541 130.022C281.053 130.486 280.495 130.865 279.869 131.158C279.242 131.451 278.506 131.666 277.659 131.805C276.813 131.935 275.812 132 274.656 132H272.618C271.185 132 269.879 131.894 268.699 131.683C267.519 131.463 266.502 131.109 265.647 130.621C264.793 130.132 264.134 129.481 263.67 128.667C263.206 127.854 262.974 126.849 262.974 125.652C262.974 124.952 263.051 124.273 263.206 123.614C263.369 122.946 263.568 122.324 263.804 121.746L266.539 122.784C266.4 123.158 266.266 123.589 266.136 124.078C266.006 124.558 265.94 125.022 265.94 125.469C265.94 126.12 266.107 126.657 266.441 127.081C266.783 127.496 267.255 127.825 267.857 128.069C268.467 128.305 269.175 128.472 269.981 128.57C270.795 128.667 271.674 128.716 272.618 128.716H274.656C275.861 128.716 276.886 128.639 277.732 128.484C278.579 128.33 279.226 128.065 279.673 127.691C280.121 127.308 280.345 126.792 280.345 126.141C280.345 125.742 280.333 125.302 280.308 124.822C280.284 124.334 280.255 123.903 280.223 123.528ZM285.167 128.716H285.752V132H285.167V128.716ZM287.681 133.526L289.793 135.638L287.681 137.75L285.569 135.638L287.681 133.526ZM288.926 123.589L291.783 123.248L292.027 126.617C292.051 127.04 292.137 127.41 292.283 127.728C292.438 128.045 292.662 128.289 292.955 128.46C293.248 128.631 293.622 128.716 294.078 128.716H294.322V132H294.053C293.5 132 293.003 131.931 292.564 131.792C292.125 131.654 291.738 131.463 291.404 131.219C291.071 130.975 290.782 130.69 290.538 130.364C290.057 130.885 289.472 131.288 288.78 131.573C288.096 131.858 287.368 132 286.595 132H285.435V128.716H286.595C287.514 128.716 288.153 128.509 288.511 128.094C288.869 127.679 289.048 127.048 289.048 126.202C289.048 125.746 289.036 125.302 289.012 124.871C288.995 124.432 288.967 124.004 288.926 123.589ZM293.833 128.716H294.725V132H293.833V128.716ZM297.178 113.714L299.083 115.618L297.178 117.522L295.274 115.618L297.178 113.714ZM299.302 116.827L301.207 118.731L299.302 120.635L297.398 118.731L299.302 116.827ZM295.054 116.827L296.958 118.731L295.054 120.635L293.15 118.731L295.054 116.827ZM295.75 132H294.395V128.716H295.726C296.515 128.716 297.093 128.574 297.459 128.289C297.833 127.996 298.021 127.463 298.021 126.69C298.021 126.242 297.972 125.66 297.874 124.944C297.785 124.228 297.626 123.431 297.398 122.552L300.352 121.758C300.556 122.556 300.706 123.341 300.804 124.114C300.91 124.879 300.962 125.612 300.962 126.312C300.962 127.451 300.8 128.448 300.474 129.302C300.149 130.149 299.607 130.812 298.851 131.292C298.094 131.764 297.06 132 295.75 132Z" fill="white"/>
</g>
<defs>
<clipPath id="clip0_556_1007">
<path d="M320 180H0V15C0 6.71573 6.71573 0 15 0H305C313.284 0 320 6.71573 320 15V180Z" fill="white"/>
</clipPath>
</defs>
</svg>
