<svg width="180" height="170" viewBox="0 0 180 170" fill="none" xmlns="http://www.w3.org/2000/svg">
<path d="M83.5049 139.596C83.5049 141.102 85.1617 140.812 87.1265 140.467C88.0633 140.303 89.0703 140.126 90.001 140.126C91.2068 140.126 92.8371 140.777 94.3258 141.371C96.3957 142.197 98.1917 142.914 98.1917 141.62C98.1917 141.345 93.3835 136.078 90.001 136.078C86.6185 136.078 83.5049 139.321 83.5049 139.596Z" fill="#505F7B"/>
<path fill-rule="evenodd" clip-rule="evenodd" d="M161.222 42.1324C159.209 43.4509 161.465 46.395 163.576 45.2045C164.923 44.4446 165.089 43.2728 163.988 42.2867C162.878 41.2936 162.533 41.2743 161.222 42.1324ZM162.38 44.9085C163.796 45.0902 164.599 43.6832 163.658 42.6672C162.913 41.8638 162.59 41.8258 161.544 42.4203C160.429 43.0527 160.993 44.7305 162.38 44.9085Z" fill="#FC2241"/>
<path d="M147.43 59.1221C147.979 59.9098 147.954 60.2883 147.302 61.031C146.549 61.8886 146.565 61.9032 147.523 61.2288C148.352 60.645 148.775 60.6222 149.654 61.114C150.652 61.6725 150.689 61.6391 150.066 60.7451C149.517 59.9574 149.542 59.5789 150.194 58.8362C150.947 57.9786 150.931 57.964 149.973 58.6384C149.144 59.2222 148.721 59.245 147.842 58.7532C146.844 58.1947 146.807 58.2281 147.43 59.1221Z" fill="#FC2241"/>
<path d="M115.307 58.1628C115.307 59.6933 115.978 60.3191 116.107 59.5541C116.237 58.7891 116.237 57.5364 116.107 56.7714C115.978 56.0065 115.307 56.6323 115.307 58.1628Z" fill="#FC2241"/>
<path d="M114.367 66.5797C114.168 67.885 114.113 69.0507 114.247 69.1696C114.379 69.289 115.23 68.3302 115.446 67.0396C115.662 65.7494 115.152 64.5837 115.002 64.4502C114.853 64.3161 114.567 65.2748 114.367 66.5797Z" fill="#FC2241"/>
<path d="M111.173 75.2025C109.903 78.1567 110.471 78.3115 111.759 76.2149C112.412 75.1519 112.861 74.054 112.758 73.7757C112.654 73.4975 111.631 74.1395 111.173 75.2025Z" fill="#FC2241"/>
<path d="M106.622 83.0371C106.238 83.6872 105.553 84.731 105.1 85.3573C104.647 85.9837 104.993 86.4957 105.18 86.4957C105.694 86.4957 108.483 82.39 108.163 82.1041C108.011 81.9675 107.007 82.3874 106.622 83.0371Z" fill="#FC2241"/>
<path d="M101.049 91.1984C100.626 91.8122 99.9066 92.8261 99.4525 93.4524C98.9983 94.0788 99.344 94.5908 99.531 94.5908C100.016 94.5908 102.925 90.567 102.63 90.3029C102.496 90.182 101.474 90.5852 101.049 91.1984Z" fill="#FC2241"/>
<path d="M94.8584 99.2708C94.0805 100.405 94.6465 100.406 95.852 99.4454C97.1467 98.4142 97.3139 97.6265 96.6332 97.6265C96.3971 97.6265 95.2877 98.6444 94.8584 99.2708Z" fill="#FC2241"/>
<path fill-rule="evenodd" clip-rule="evenodd" d="M90.9613 66.865C89.1525 68.4851 91.0613 70.8423 93.4072 69.8845C95.5831 68.9966 94.9307 66.2579 92.5429 66.2579C92.0458 66.2579 91.3341 66.5311 90.9613 66.865ZM91.7962 69.5111C92.996 69.9235 94.5036 68.6202 94.05 67.5622C93.7066 66.7608 91.9289 66.4704 91.2251 67.1013C90.5094 67.7418 90.8517 69.1863 91.7962 69.5111Z" fill="white"/>
<path d="M92.5429 58.6895C90.8342 59.2005 89.8428 60.1385 90.3405 60.1557C91.4725 60.1942 94.9047 59.1833 95.6215 58.5999C96.2722 58.0697 96.3733 57.5445 92.5429 58.6895Z" fill="#FC2241"/>
<path d="M104.593 54.5579C101.149 56.5008 100.845 57.5283 104.123 55.8698C107.473 54.1754 107.484 53.6624 107.183 53.4196C107.053 53.3148 105.888 53.8273 104.593 54.5579Z" fill="#FC2241"/>
<path d="M115.138 47.5622C115.138 47.8537 114.439 48.6652 113.585 49.3654L112.031 50.6379L113.546 49.8112L115.061 48.9849L115.291 50.6647C115.507 52.2392 115.528 52.2159 115.612 50.2953C115.662 49.1681 116.008 47.9731 116.381 47.6391C116.908 47.1671 116.845 47.032 116.098 47.032C115.57 47.032 115.138 47.2708 115.138 47.5622Z" fill="#505F7B"/>
<path d="M129.607 34.1886C128.734 35.1691 128.118 36.0586 128.237 36.1658C128.357 36.2726 129.169 35.5582 130.042 34.5782C130.915 33.5976 131.532 32.7082 131.413 32.6009C131.293 32.4942 130.48 33.2086 129.607 34.1886Z" fill="#FC2241"/>
<path d="M135.333 25.8911C134.79 27.0381 134.469 28.0874 134.62 28.222C134.971 28.5367 136.718 24.8195 136.491 24.2407C136.398 24.0014 135.876 24.7441 135.333 25.8911Z" fill="#FC2241"/>
<path d="M110.636 28.8929C110.627 29.073 110.687 30.2114 111.459 31.4226C112.232 32.6338 113.431 33.3968 113.434 33.1185C113.438 32.5589 110.665 28.3692 110.636 28.8929Z" fill="#FC2241"/>
<path fill-rule="evenodd" clip-rule="evenodd" d="M85.7729 35.6386C85.1956 36.262 85.177 36.7188 85.687 37.7216C86.4383 39.199 88.3668 39.2394 89.3757 37.7985C90.6896 35.9209 87.3608 33.9255 85.7729 35.6386ZM86.5473 37.8309C87.698 38.862 89.2768 38.2053 89.052 36.7886C88.9396 36.0788 88.4182 35.5906 87.672 35.4949C86.148 35.3002 85.417 36.8185 86.5473 37.8309Z" fill="#FC2241"/>
<path d="M64.3557 40.7497C64.3867 41.5617 64.6279 42.7947 64.8917 43.4904C65.2154 44.3434 65.8306 43.9316 65.6103 42.2255C65.2437 39.3796 64.2698 38.5053 64.3557 40.7497Z" fill="#FC2241"/>
<path d="M68.2618 50.3819C68.2742 51.0315 72.0521 54.9197 72.3809 54.6212C72.5345 54.482 72.2329 53.3715 71.0212 52.1527C69.8095 50.9344 68.2573 50.1375 68.2618 50.3819Z" fill="#FC2241"/>
<path d="M77.5952 58.1942C77.9353 58.6864 82.8864 60.4056 83.1807 60.1329C83.2993 60.0231 82.03 58.9475 80.3597 58.3606C78.6894 57.7732 77.4455 57.9766 77.5952 58.1942Z" fill="#FC2241"/>
<path d="M70.1304 24.391C68.8566 25.6584 68.0556 26.7942 68.4352 26.7942C68.5719 26.7942 69.9276 25.9973 70.7568 25.0234C72.4583 23.0259 71.8589 22.6713 70.1304 24.391Z" fill="#FC2241"/>
<path d="M78.0409 18.9789C77.0546 19.3659 76.0751 19.9331 75.8633 20.2397C75.6515 20.5463 77.023 20.863 78.2205 20.3242C79.4181 19.7859 80.2145 19.2182 80.6806 19.0624C81.4335 18.8104 81.4335 18.2731 80.6806 18.2746C80.2145 18.2751 79.0266 18.5923 78.0409 18.9789Z" fill="#FC2241"/>
<path d="M86.6117 17.4373C87.9313 17.8496 91.4132 17.9569 91.4132 17.5855C91.4132 17.3634 90.206 16.6935 88.73 16.7153C87.254 16.737 86.3011 17.3406 86.6117 17.4373Z" fill="#FC2241"/>
<path d="M95.9322 18.4051C95.9322 18.7578 99.8033 20.224 100.661 20.1967C101.42 20.1724 100.704 19.4787 98.8978 18.9809C98.1985 18.7886 95.9322 18.2513 95.9322 18.4051Z" fill="#FC2241"/>
<path d="M106.1 24.0115C107.154 24.9855 108.143 25.7823 108.298 25.7823C108.454 25.7823 108.284 24.4795 107.23 23.5056C106.176 22.5316 104.622 22.2407 104.466 22.2407C104.311 22.2407 105.046 23.0376 106.1 24.0115Z" fill="#FC2241"/>
<path d="M138.107 18.0398C137.643 20.6004 138.022 20.7047 138.729 18.2114C139.047 17.0882 139.113 16.1694 138.877 16.1694C138.64 16.1694 138.293 17.0113 138.107 18.0398Z" fill="#FC2241"/>
<path d="M139.71 10.604C139.498 11.2025 139.451 11.8061 139.607 11.9452C139.762 12.0844 140.063 11.7084 140.275 11.1099C140.487 10.5114 140.534 9.90779 140.378 9.76865C140.223 9.62952 139.922 10.0054 139.71 10.604Z" fill="#FC2241"/>
<path fill-rule="evenodd" clip-rule="evenodd" d="M138.668 0.904501C136.742 2.80989 138.257 5.54452 141.239 5.54452C143.011 5.54452 144.088 4.45876 144.088 2.67328C144.088 0.224004 140.528 -0.937138 138.668 0.904501ZM143.281 3.3639C143.381 2.58171 143.16 1.61384 142.789 1.21363C141.672 0.00847257 139.488 0.319123 138.74 1.7894C137.805 3.62648 138.751 4.7856 141.184 4.7856C142.864 4.7856 143.122 4.61055 143.281 3.3639Z" fill="#FC2241"/>
<path d="M98.0454 1.84505C97.2393 2.56653 96.9862 2.58171 96.1016 1.9594C95.1741 1.30673 95.1526 1.3214 95.8599 2.12939C96.488 2.84632 96.4993 3.16152 95.9209 3.78586C95.5277 4.20984 95.3334 4.67075 95.4887 4.80989C95.6441 4.94902 96.0983 4.71022 96.4976 4.27915C97.1506 3.57437 97.3438 3.58399 98.4137 4.3763C99.5728 5.23488 99.5784 5.23236 98.6266 4.2913C97.7206 3.39426 97.7166 3.25866 98.5764 2.40766C99.7564 1.23944 99.2819 0.737034 98.0454 1.84505Z" fill="#FC2241"/>
<path fill-rule="evenodd" clip-rule="evenodd" d="M43.7061 21.9088C42.9322 22.4158 42.7656 22.9399 43.0526 23.9645C43.3666 25.0846 43.7129 25.8167 44.9149 25.6877C47.0863 25.455 47.8517 23.5734 46.5356 22.2706C45.2945 21.0421 45.0725 21.0138 43.7061 21.9088ZM43.6005 24.0049C44.2264 25.4661 46.2232 25.1453 46.2232 23.4818C46.2232 23.3755 46.3062 22.5514 45.7176 22.269C44.4427 21.6579 43.0751 22.779 43.6005 24.0049Z" fill="#FC2241"/>
<path fill-rule="evenodd" clip-rule="evenodd" d="M77.345 30.6065C71.0054 33.2405 65.5865 35.3953 65.303 35.3953L33.7959 48.5807C16.8638 55.5607 1.59808 62.5114 1.59808 62.5114L0.0163819 63.3269L0.0164265 114.207C-0.102197 149.498 0.460496 165.191 0.462114 166.558C0.462114 170.503 -5.26742 169.977 90.001 169.977C185.27 169.977 179.039 170.25 179.539 166.558C179.539 165.191 180.101 149.425 179.984 114.208L179.816 63.7509L178.404 62.5073C176.831 61.1221 91.6386 25.7717 89.9417 25.8C89.3531 25.8101 83.6846 27.9731 77.345 30.6065ZM114.364 37.5693C114.206 37.4282 108.931 35.1737 102.642 32.5594C96.3519 29.9452 90.6805 27.8091 90.0388 27.8127C88.6572 27.8203 4.24002 62.5935 2.7979 63.7491C2.04379 64.3531 2.16521 65.1813 2.17255 67.7277L2.18159 71.0644L45.3917 88.8989C69.1571 98.7077 89.2068 106.733 89.9462 106.733C91.0127 106.733 174.45 72.6844 177.133 71.1544C178.292 70.4937 178.059 64.5696 176.836 63.5779C175.912 62.8291 124.661 41.4666 123.788 41.4666C123.575 41.4666 122.75 41.9786 121.953 42.605L120.504 43.7434L121.841 42.3834L123.177 41.0239L119.361 39.4742C117.264 38.6222 115.516 37.925 115.479 37.925C115.442 37.925 115.463 39.0062 115.525 40.3282L115.638 42.7315L115.145 40.2786C114.873 38.9298 114.522 37.7105 114.364 37.5693ZM90.001 108.408C88.2448 108.396 78.4318 104.534 45.9408 91.0674C22.9503 81.5389 3.69546 73.626 3.15148 73.4828C2.21492 73.2369 2.16295 75.6578 2.16295 119.346L2.23468 165.444C2.23468 166.838 3.37042 167.965 4.76433 167.954L4.93592 167.953H90.001H175.066L175.404 167.955C176.773 167.965 177.877 166.838 177.839 165.469V119.346C177.839 75.6599 177.787 73.2364 176.851 73.4772C176.307 73.6174 157.052 81.5374 134.061 91.078C100.751 104.901 91.8012 108.421 90.001 108.408Z" fill="#505F7B"/>
<path d="M65.6464 34.5099C65.808 34.0226 66.0955 32.9414 66.2853 32.1066C66.5536 30.9242 65.9334 30.773 65.469 31.4226C65.1409 31.881 64.807 32.5681 64.7268 33.5673C64.7268 33.5673 64.5677 34.7507 64.6219 34.7802C64.8348 34.896 65.0066 34.9805 65.243 34.9102C65.4662 34.8438 65.5358 34.8434 65.6464 34.5099Z" fill="#FC2241"/>
<path fill-rule="evenodd" clip-rule="evenodd" d="M85.7729 35.6386C85.1956 36.262 85.177 36.7188 85.687 37.7216C86.4383 39.199 88.3668 39.2394 89.3757 37.7985C90.6896 35.9209 87.3608 33.9255 85.7729 35.6386ZM64.3557 40.7497C64.3867 41.5617 64.6279 42.7947 64.8917 43.4904C65.2154 44.3434 65.8306 43.9316 65.6103 42.2255C65.2437 39.3796 64.2698 38.5053 64.3557 40.7497ZM115.138 47.5622C115.138 47.8537 114.439 48.6652 113.585 49.3654L112.031 50.6379L113.546 49.8112L115.061 48.9849L115.291 50.6647C115.507 52.2392 115.528 52.2159 115.612 50.2953C115.662 49.1681 116.008 47.9731 116.381 47.6391C116.908 47.1671 116.845 47.032 116.098 47.032C115.57 47.032 115.138 47.2708 115.138 47.5622ZM68.2618 50.3819C68.2742 51.0315 72.0521 54.9197 72.3809 54.6212C72.5345 54.482 72.2329 53.3715 71.0212 52.1527C69.8095 50.9344 68.2573 50.1375 68.2618 50.3819ZM104.593 54.5579C101.149 56.5008 100.845 57.5283 104.123 55.8698C107.473 54.1754 107.484 53.6624 107.183 53.4196C107.053 53.3148 105.888 53.8273 104.593 54.5579ZM115.307 58.1628C115.307 59.6933 115.978 60.3191 116.107 59.5541C116.237 58.7891 116.237 57.5364 116.107 56.7714C115.978 56.0065 115.307 56.6323 115.307 58.1628ZM77.5952 58.1942C77.9353 58.6864 82.8864 60.4056 83.1807 60.1329C83.2993 60.0231 82.03 58.9475 80.3597 58.3606C78.6894 57.7732 77.4455 57.9766 77.5952 58.1942ZM92.5429 58.6895C90.8342 59.2005 89.8428 60.1385 90.3405 60.1557C91.4725 60.1942 94.9047 59.1833 95.6215 58.5999C96.2722 58.0697 96.3733 57.5445 92.5429 58.6895ZM147.43 59.1221C147.979 59.9098 147.954 60.2883 147.302 61.031C146.549 61.8886 146.565 61.9032 147.523 61.2288C148.352 60.645 148.775 60.6222 149.654 61.114C150.652 61.6725 150.689 61.6391 150.066 60.7451C149.517 59.9574 149.542 59.5789 150.194 58.8362C150.947 57.9786 150.931 57.964 149.973 58.6384C149.144 59.2222 148.721 59.245 147.842 58.7532C146.844 58.1947 146.807 58.2281 147.43 59.1221ZM114.367 66.5797C114.168 67.885 114.113 69.0507 114.247 69.1696C114.379 69.289 115.23 68.3302 115.446 67.0396C115.662 65.7494 115.152 64.5837 115.002 64.4502C114.853 64.3161 114.567 65.2748 114.367 66.5797ZM90.9613 66.865C89.1525 68.4851 91.0613 70.8423 93.4072 69.8845C95.5831 68.9966 94.9307 66.2579 92.5429 66.2579C92.0458 66.2579 91.3341 66.5311 90.9613 66.865ZM111.173 75.2025C109.903 78.1567 110.471 78.3115 111.759 76.2149C112.412 75.1519 112.861 74.054 112.758 73.7757C112.654 73.4975 111.631 74.1395 111.173 75.2025ZM106.622 83.0371C106.238 83.6872 105.553 84.731 105.1 85.3573C104.647 85.9837 104.993 86.4957 105.18 86.4957C105.694 86.4957 108.483 82.39 108.163 82.1041C108.011 81.9675 107.007 82.3874 106.622 83.0371ZM101.049 91.1984C100.626 91.8122 99.9066 92.8261 99.4525 93.4524C98.9983 94.0788 99.344 94.5908 99.531 94.5908C100.016 94.5908 102.925 90.567 102.63 90.3029C102.496 90.182 101.474 90.5852 101.049 91.1984ZM94.8584 99.2708C94.0805 100.405 94.6465 100.406 95.852 99.4454C97.1467 98.4142 97.3139 97.6265 96.6332 97.6265C96.3971 97.6265 95.2877 98.6444 94.8584 99.2708ZM90.001 140.126C89.0703 140.126 88.0633 140.303 87.1265 140.467C85.1617 140.812 83.5049 141.102 83.5049 139.596C83.5049 139.321 86.6185 136.078 90.001 136.078C93.3835 136.078 98.1917 141.345 98.1917 141.62C98.1917 142.914 96.3957 142.197 94.3258 141.371C92.8371 140.777 91.2068 140.126 90.001 140.126ZM91.7962 69.5111C92.996 69.9235 94.5036 68.6202 94.05 67.5622C93.7066 66.7608 91.9289 66.4704 91.2251 67.1013C90.5094 67.7418 90.8517 69.1863 91.7962 69.5111ZM89.052 36.7886C89.2768 38.2053 87.698 38.862 86.5473 37.8309C85.417 36.8185 86.148 35.3002 87.672 35.4949C88.4182 35.5906 88.9396 36.0788 89.052 36.7886Z" fill="#FC2241"/>
<path d="M83.5049 139.596C83.5049 141.102 85.1617 140.812 87.1265 140.467C88.0633 140.303 89.0703 140.126 90.001 140.126C91.2068 140.126 92.8371 140.777 94.3258 141.371C96.3957 142.197 98.1917 142.914 98.1917 141.62C98.1917 141.345 93.3835 136.078 90.001 136.078C86.6185 136.078 83.5049 139.321 83.5049 139.596Z" fill="#505F7B"/>
<path d="M117.787 135.038C115.672 134.355 115.072 130.661 116.833 129.176C118.683 127.62 122.444 128.968 122.997 131.386C123.604 134.038 120.79 136.01 117.787 135.038Z" fill="#505F7B"/>
<path d="M59.8839 135.011C56.2474 135.011 54.5218 132.985 55.7507 130.16C57.051 127.174 61.886 128.51 62.4526 132.011C62.8171 134.265 62.1776 135.011 59.8839 135.011Z" fill="#505F7B"/>
</svg>
